<svg width="2379" height="1206" xmlns="http://www.w3.org/2000/svg" xmlns:xlink="http://www.w3.org/1999/xlink" xml:space="preserve" overflow="hidden"><g transform="translate(-938 -479)"><text font-family="Arial,Arial_MSFontService,sans-serif" font-weight="700" font-size="52" transform="matrix(1 0 0 1 976.25 545)">(a) </text><text font-family="Arial,Arial_MSFontService,sans-serif" font-weight="700" font-size="52" transform="matrix(1 0 0 1 1053.59 545)">NURBS </text><text font-family="DengXian,DengXian_MSFontService,sans-serif" font-weight="700" font-size="52" transform="matrix(1 0 0 1 1251.25 545)">曲面</text><text font-family="Cambria Math,Cambria Math_MSFontService,sans-serif" font-weight="400" font-size="52" transform="matrix(1 0 0 1 1368.7 545)">𝑺</text><text font-family="Cambria Math,Cambria Math_MSFontService,sans-serif" font-weight="400" font-size="52" transform="matrix(1 0 0 1 1397.92 545)">(</text><text font-family="Cambria Math,Cambria Math_MSFontService,sans-serif" font-weight="400" font-size="52" transform="matrix(1 0 0 1 1419.11 545)">𝒖</text><text font-family="Cambria Math,Cambria Math_MSFontService,sans-serif" font-weight="400" font-size="52" transform="matrix(1 0 0 1 1452.34 545)">,</text><text font-family="Cambria Math,Cambria Math_MSFontService,sans-serif" font-weight="400" font-size="52" transform="matrix(1 0 0 1 1471.25 545)">𝒗</text><text font-family="Cambria Math,Cambria Math_MSFontService,sans-serif" font-weight="400" font-size="52" transform="matrix(1 0 0 1 1502.19 545)">)</text><text font-family="Arial,Arial_MSFontService,sans-serif" font-weight="700" font-size="52" transform="matrix(1 0 0 1 1537.71 545)">—</text><text font-family="Cambria Math,Cambria Math_MSFontService,sans-serif" font-weight="400" font-size="52" transform="matrix(1 0 0 1 1603.59 545)">𝟕</text><text font-family="Cambria Math,Cambria Math_MSFontService,sans-serif" font-weight="400" font-size="52" transform="matrix(1 0 0 1 1645.99 545)">×</text><text font-family="Cambria Math,Cambria Math_MSFontService,sans-serif" font-weight="400" font-size="52" transform="matrix(1 0 0 1 1694.11 545)">𝟕</text><text font-family="Arial,Arial_MSFontService,sans-serif" font-weight="700" font-size="52" transform="matrix(1 0 0 1 1739.37 545)">UV </text><text font-family="DengXian,DengXian_MSFontService,sans-serif" font-weight="700" font-size="52" transform="matrix(1 0 0 1 1825.31 545)">网格</text><rect x="1109.5" y="611.5" width="687" height="688" stroke="#333333" stroke-width="6.875" stroke-miterlimit="8" fill="#FFFFFF"/><path d="M1109.5 725.5 1796.5 725.5" stroke="#BBBBBB" stroke-width="3.4375" stroke-miterlimit="8" fill="none" fill-rule="evenodd"/><path d="M1109.5 838.5 1796.5 838.5" stroke="#BBBBBB" stroke-width="3.4375" stroke-miterlimit="8" fill="none" fill-rule="evenodd"/><path d="M1109.5 955.5 1796.5 955.5" stroke="#BBBBBB" stroke-width="3.4375" stroke-miterlimit="8" fill="none" fill-rule="evenodd"/><path d="M1109.5 1068.5 1796.5 1068.5" stroke="#BBBBBB" stroke-width="3.4375" stroke-miterlimit="8" fill="none" fill-rule="evenodd"/><path d="M1109.5 1182.5 1796.5 1182.5" stroke="#BBBBBB" stroke-width="3.4375" stroke-miterlimit="8" fill="none" fill-rule="evenodd"/><path d="M1222.5 611.5 1222.5 1299.5" stroke="#BBBBBB" stroke-width="3.4375" stroke-miterlimit="8" fill="none" fill-rule="evenodd"/><path d="M1335.5 611.5 1335.5 1299.5" stroke="#BBBBBB" stroke-width="3.4375" stroke-miterlimit="8" fill="none" fill-rule="evenodd"/><path d="M1452.5 611.5 1452.5 1299.5" stroke="#BBBBBB" stroke-width="3.4375" stroke-miterlimit="8" fill="none" fill-rule="evenodd"/><path d="M1566.5 611.5 1566.5 1299.5" stroke="#BBBBBB" stroke-width="3.4375" stroke-miterlimit="8" fill="none" fill-rule="evenodd"/><path d="M1679.5 611.5 1679.5 1299.5" stroke="#BBBBBB" stroke-width="3.4375" stroke-miterlimit="8" fill="none" fill-rule="evenodd"/><path d="M1095 611.5C1095 604.044 1101.04 598 1108.5 598 1115.96 598 1122 604.044 1122 611.5 1122 618.956 1115.96 625 1108.5 625 1101.04 625 1095 618.956 1095 611.5Z" fill="#1A73E8" fill-rule="evenodd"/><path d="M1208 611.5C1208 604.044 1214.27 598 1222 598 1229.73 598 1236 604.044 1236 611.5 1236 618.956 1229.73 625 1222 625 1214.27 625 1208 618.956 1208 611.5Z" fill="#1A73E8" fill-rule="evenodd"/><path d="M1322 611.5C1322 604.044 1328.04 598 1335.5 598 1342.96 598 1349 604.044 1349 611.5 1349 618.956 1342.96 625 1335.5 625 1328.04 625 1322 618.956 1322 611.5Z" fill="#1A73E8" fill-rule="evenodd"/><path d="M1439 611.5C1439 604.044 1445.04 598 1452.5 598 1459.96 598 1466 604.044 1466 611.5 1466 618.956 1459.96 625 1452.5 625 1445.04 625 1439 618.956 1439 611.5Z" fill="#1A73E8" fill-rule="evenodd"/><path d="M1552 611.5C1552 604.044 1558.27 598 1566 598 1573.73 598 1580 604.044 1580 611.5 1580 618.956 1573.73 625 1566 625 1558.27 625 1552 618.956 1552 611.5Z" fill="#1A73E8" fill-rule="evenodd"/><path d="M1665 611.5C1665 604.044 1671.27 598 1679 598 1686.73 598 1693 604.044 1693 611.5 1693 618.956 1686.73 625 1679 625 1671.27 625 1665 618.956 1665 611.5Z" fill="#1A73E8" fill-rule="evenodd"/><path d="M1782 611.5C1782 604.044 1788.27 598 1796 598 1803.73 598 1810 604.044 1810 611.5 1810 618.956 1803.73 625 1796 625 1788.27 625 1782 618.956 1782 611.5Z" fill="#1A73E8" fill-rule="evenodd"/><path d="M1095 724.5C1095 717.044 1101.04 711 1108.5 711 1115.96 711 1122 717.044 1122 724.5 1122 731.956 1115.96 738 1108.5 738 1101.04 738 1095 731.956 1095 724.5Z" fill="#1A73E8" fill-rule="evenodd"/><path d="M1208 724.5C1208 717.044 1214.27 711 1222 711 1229.73 711 1236 717.044 1236 724.5 1236 731.956 1229.73 738 1222 738 1214.27 738 1208 731.956 1208 724.5Z" fill="#1A73E8" fill-rule="evenodd"/><path d="M1322 724.5C1322 717.044 1328.04 711 1335.5 711 1342.96 711 1349 717.044 1349 724.5 1349 731.956 1342.96 738 1335.5 738 1328.04 738 1322 731.956 1322 724.5Z" fill="#1A73E8" fill-rule="evenodd"/><path d="M1439 724.5C1439 717.044 1445.04 711 1452.5 711 1459.96 711 1466 717.044 1466 724.5 1466 731.956 1459.96 738 1452.5 738 1445.04 738 1439 731.956 1439 724.5Z" fill="#1A73E8" fill-rule="evenodd"/><path d="M1552 724.5C1552 717.044 1558.27 711 1566 711 1573.73 711 1580 717.044 1580 724.5 1580 731.956 1573.73 738 1566 738 1558.27 738 1552 731.956 1552 724.5Z" fill="#1A73E8" fill-rule="evenodd"/><path d="M1665 724.5C1665 717.044 1671.27 711 1679 711 1686.73 711 1693 717.044 1693 724.5 1693 731.956 1686.73 738 1679 738 1671.27 738 1665 731.956 1665 724.5Z" fill="#1A73E8" fill-rule="evenodd"/><path d="M1782 724.5C1782 717.044 1788.27 711 1796 711 1803.73 711 1810 717.044 1810 724.5 1810 731.956 1803.73 738 1796 738 1788.27 738 1782 731.956 1782 724.5Z" fill="#1A73E8" fill-rule="evenodd"/><path d="M1095 838C1095 830.268 1101.04 824 1108.5 824 1115.96 824 1122 830.268 1122 838 1122 845.732 1115.96 852 1108.5 852 1101.04 852 1095 845.732 1095 838Z" fill="#1A73E8" fill-rule="evenodd"/><path d="M1208 838C1208 830.268 1214.27 824 1222 824 1229.73 824 1236 830.268 1236 838 1236 845.732 1229.73 852 1222 852 1214.27 852 1208 845.732 1208 838Z" fill="#1A73E8" fill-rule="evenodd"/><path d="M1322 838C1322 830.268 1328.04 824 1335.5 824 1342.96 824 1349 830.268 1349 838 1349 845.732 1342.96 852 1335.5 852 1328.04 852 1322 845.732 1322 838Z" fill="#1A73E8" fill-rule="evenodd"/><path d="M1439 838C1439 830.268 1445.04 824 1452.5 824 1459.96 824 1466 830.268 1466 838 1466 845.732 1459.96 852 1452.5 852 1445.04 852 1439 845.732 1439 838Z" fill="#1A73E8" fill-rule="evenodd"/><path d="M1552 838C1552 830.268 1558.27 824 1566 824 1573.73 824 1580 830.268 1580 838 1580 845.732 1573.73 852 1566 852 1558.27 852 1552 845.732 1552 838Z" fill="#1A73E8" fill-rule="evenodd"/><path d="M1665 838C1665 830.268 1671.27 824 1679 824 1686.73 824 1693 830.268 1693 838 1693 845.732 1686.73 852 1679 852 1671.27 852 1665 845.732 1665 838Z" fill="#1A73E8" fill-rule="evenodd"/><path d="M1782 838C1782 830.268 1788.27 824 1796 824 1803.73 824 1810 830.268 1810 838 1810 845.732 1803.73 852 1796 852 1788.27 852 1782 845.732 1782 838Z" fill="#1A73E8" fill-rule="evenodd"/><path d="M1095 955C1095 947.268 1101.04 941 1108.5 941 1115.96 941 1122 947.268 1122 955 1122 962.732 1115.96 969 1108.5 969 1101.04 969 1095 962.732 1095 955Z" fill="#1A73E8" fill-rule="evenodd"/><path d="M1208 955C1208 947.268 1214.27 941 1222 941 1229.73 941 1236 947.268 1236 955 1236 962.732 1229.73 969 1222 969 1214.27 969 1208 962.732 1208 955Z" fill="#1A73E8" fill-rule="evenodd"/><path d="M1322 955C1322 947.268 1328.04 941 1335.5 941 1342.96 941 1349 947.268 1349 955 1349 962.732 1342.96 969 1335.5 969 1328.04 969 1322 962.732 1322 955Z" fill="#1A73E8" fill-rule="evenodd"/><path d="M1439 955C1439 947.268 1445.04 941 1452.5 941 1459.96 941 1466 947.268 1466 955 1466 962.732 1459.96 969 1452.5 969 1445.04 969 1439 962.732 1439 955Z" fill="#1A73E8" fill-rule="evenodd"/><path d="M1552 955C1552 947.268 1558.27 941 1566 941 1573.73 941 1580 947.268 1580 955 1580 962.732 1573.73 969 1566 969 1558.27 969 1552 962.732 1552 955Z" fill="#1A73E8" fill-rule="evenodd"/><path d="M1665 955C1665 947.268 1671.27 941 1679 941 1686.73 941 1693 947.268 1693 955 1693 962.732 1686.73 969 1679 969 1671.27 969 1665 962.732 1665 955Z" fill="#1A73E8" fill-rule="evenodd"/><path d="M1782 955C1782 947.268 1788.27 941 1796 941 1803.73 941 1810 947.268 1810 955 1810 962.732 1803.73 969 1796 969 1788.27 969 1782 962.732 1782 955Z" fill="#1A73E8" fill-rule="evenodd"/><path d="M1095 1068.5C1095 1061.04 1101.04 1055 1108.5 1055 1115.96 1055 1122 1061.04 1122 1068.5 1122 1075.96 1115.96 1082 1108.5 1082 1101.04 1082 1095 1075.96 1095 1068.5Z" fill="#1A73E8" fill-rule="evenodd"/><path d="M1208 1068.5C1208 1061.04 1214.27 1055 1222 1055 1229.73 1055 1236 1061.04 1236 1068.5 1236 1075.96 1229.73 1082 1222 1082 1214.27 1082 1208 1075.96 1208 1068.5Z" fill="#1A73E8" fill-rule="evenodd"/><path d="M1322 1068.5C1322 1061.04 1328.04 1055 1335.5 1055 1342.96 1055 1349 1061.04 1349 1068.5 1349 1075.96 1342.96 1082 1335.5 1082 1328.04 1082 1322 1075.96 1322 1068.5Z" fill="#1A73E8" fill-rule="evenodd"/><path d="M1439 1068.5C1439 1061.04 1445.04 1055 1452.5 1055 1459.96 1055 1466 1061.04 1466 1068.5 1466 1075.96 1459.96 1082 1452.5 1082 1445.04 1082 1439 1075.96 1439 1068.5Z" fill="#1A73E8" fill-rule="evenodd"/><path d="M1552 1068.5C1552 1061.04 1558.27 1055 1566 1055 1573.73 1055 1580 1061.04 1580 1068.5 1580 1075.96 1573.73 1082 1566 1082 1558.27 1082 1552 1075.96 1552 1068.5Z" fill="#1A73E8" fill-rule="evenodd"/><path d="M1665 1068.5C1665 1061.04 1671.27 1055 1679 1055 1686.73 1055 1693 1061.04 1693 1068.5 1693 1075.96 1686.73 1082 1679 1082 1671.27 1082 1665 1075.96 1665 1068.5Z" fill="#1A73E8" fill-rule="evenodd"/><path d="M1782 1068.5C1782 1061.04 1788.27 1055 1796 1055 1803.73 1055 1810 1061.04 1810 1068.5 1810 1075.96 1803.73 1082 1796 1082 1788.27 1082 1782 1075.96 1782 1068.5Z" fill="#1A73E8" fill-rule="evenodd"/><path d="M1095 1182C1095 1174.27 1101.04 1168 1108.5 1168 1115.96 1168 1122 1174.27 1122 1182 1122 1189.73 1115.96 1196 1108.5 1196 1101.04 1196 1095 1189.73 1095 1182Z" fill="#1A73E8" fill-rule="evenodd"/><path d="M1208 1182C1208 1174.27 1214.27 1168 1222 1168 1229.73 1168 1236 1174.27 1236 1182 1236 1189.73 1229.73 1196 1222 1196 1214.27 1196 1208 1189.73 1208 1182Z" fill="#1A73E8" fill-rule="evenodd"/><path d="M1322 1182C1322 1174.27 1328.04 1168 1335.5 1168 1342.96 1168 1349 1174.27 1349 1182 1349 1189.73 1342.96 1196 1335.5 1196 1328.04 1196 1322 1189.73 1322 1182Z" fill="#1A73E8" fill-rule="evenodd"/><path d="M1439 1182C1439 1174.27 1445.04 1168 1452.5 1168 1459.96 1168 1466 1174.27 1466 1182 1466 1189.73 1459.96 1196 1452.5 1196 1445.04 1196 1439 1189.73 1439 1182Z" fill="#1A73E8" fill-rule="evenodd"/><path d="M1552 1182C1552 1174.27 1558.27 1168 1566 1168 1573.73 1168 1580 1174.27 1580 1182 1580 1189.73 1573.73 1196 1566 1196 1558.27 1196 1552 1189.73 1552 1182Z" fill="#1A73E8" fill-rule="evenodd"/><path d="M1665 1182C1665 1174.27 1671.27 1168 1679 1168 1686.73 1168 1693 1174.27 1693 1182 1693 1189.73 1686.73 1196 1679 1196 1671.27 1196 1665 1189.73 1665 1182Z" fill="#1A73E8" fill-rule="evenodd"/><path d="M1782 1182C1782 1174.27 1788.27 1168 1796 1168 1803.73 1168 1810 1174.27 1810 1182 1810 1189.73 1803.73 1196 1796 1196 1788.27 1196 1782 1189.73 1782 1182Z" fill="#1A73E8" fill-rule="evenodd"/><path d="M1095 1299C1095 1291.27 1101.04 1285 1108.5 1285 1115.96 1285 1122 1291.27 1122 1299 1122 1306.73 1115.96 1313 1108.5 1313 1101.04 1313 1095 1306.73 1095 1299Z" fill="#1A73E8" fill-rule="evenodd"/><path d="M1208 1299C1208 1291.27 1214.27 1285 1222 1285 1229.73 1285 1236 1291.27 1236 1299 1236 1306.73 1229.73 1313 1222 1313 1214.27 1313 1208 1306.73 1208 1299Z" fill="#1A73E8" fill-rule="evenodd"/><path d="M1322 1299C1322 1291.27 1328.04 1285 1335.5 1285 1342.96 1285 1349 1291.27 1349 1299 1349 1306.73 1342.96 1313 1335.5 1313 1328.04 1313 1322 1306.73 1322 1299Z" fill="#1A73E8" fill-rule="evenodd"/><path d="M1439 1299C1439 1291.27 1445.04 1285 1452.5 1285 1459.96 1285 1466 1291.27 1466 1299 1466 1306.73 1459.96 1313 1452.5 1313 1445.04 1313 1439 1306.73 1439 1299Z" fill="#1A73E8" fill-rule="evenodd"/><path d="M1552 1299C1552 1291.27 1558.27 1285 1566 1285 1573.73 1285 1580 1291.27 1580 1299 1580 1306.73 1573.73 1313 1566 1313 1558.27 1313 1552 1306.73 1552 1299Z" fill="#1A73E8" fill-rule="evenodd"/><path d="M1665 1299C1665 1291.27 1671.27 1285 1679 1285 1686.73 1285 1693 1291.27 1693 1299 1693 1306.73 1686.73 1313 1679 1313 1671.27 1313 1665 1306.73 1665 1299Z" fill="#1A73E8" fill-rule="evenodd"/><path d="M1782 1299C1782 1291.27 1788.27 1285 1796 1285 1803.73 1285 1810 1291.27 1810 1299 1810 1306.73 1803.73 1313 1796 1313 1788.27 1313 1782 1306.73 1782 1299Z" fill="#1A73E8" fill-rule="evenodd"/><text font-family="DengXian,DengXian_MSFontService,sans-serif" font-weight="400" font-size="41" transform="matrix(1 0 0 1 1250.7 1383)">面块：每个面</text><text font-family="Arial,Arial_MSFontService,sans-serif" font-weight="400" font-size="41" transform="matrix(1 0 0 1 1509.66 1383)">49 </text><text font-family="DengXian,DengXian_MSFontService,sans-serif" font-weight="400" font-size="41" transform="matrix(1 0 0 1 1566.95 1383)">个点</text><text fill="#555555" font-family="DengXian,DengXian_MSFontService,sans-serif" font-weight="400" font-size="38" transform="matrix(1 0 0 1 1225.47 1456)">规范排序（沿包围盒主轴）</text><text font-family="Arial,Arial_MSFontService,sans-serif" font-weight="400" font-size="38" transform="matrix(-1.83697e-16 -1 1 -1.83697e-16 1057.15 980)">v</text><text font-family="Arial,Arial_MSFontService,sans-serif" font-weight="400" font-size="38" transform="matrix(-1.83697e-16 -1 1 -1.83697e-16 1057.15 950)">→</text><text font-family="Arial,Arial_MSFontService,sans-serif" font-weight="400" font-size="38" transform="matrix(1 0 0 1 1417.97 597)">u →</text><text font-family="Arial,Arial_MSFontService,sans-serif" font-weight="700" font-size="52" transform="matrix(1 0 0 1 2405.6 551)">(b) </text><text font-family="Arial,Arial_MSFontService,sans-serif" font-weight="700" font-size="52" transform="matrix(1 0 0 1 2485.81 551)">NURBS </text><text font-family="DengXian,DengXian_MSFontService,sans-serif" font-weight="700" font-size="52" transform="matrix(1 0 0 1 2683.47 551)">曲线</text><text font-family="Cambria Math,Cambria Math_MSFontService,sans-serif" font-weight="400" font-size="52" transform="matrix(1 0 0 1 2800.92 551)">𝑪</text><text font-family="Cambria Math,Cambria Math_MSFontService,sans-serif" font-weight="400" font-size="52" transform="matrix(1 0 0 1 2833 551)">(</text><text font-family="Cambria Math,Cambria Math_MSFontService,sans-serif" font-weight="400" font-size="52" transform="matrix(1 0 0 1 2854.2 551)">𝒖</text><text font-family="Cambria Math,Cambria Math_MSFontService,sans-serif" font-weight="400" font-size="52" transform="matrix(1 0 0 1 2887.43 551)">)</text><text font-family="Arial,Arial_MSFontService,sans-serif" font-weight="700" font-size="52" transform="matrix(1 0 0 1 2922.95 551)">—</text><text font-family="Arial,Arial_MSFontService,sans-serif" font-weight="700" font-size="52" transform="matrix(1 0 0 1 2988.83 551)">14 </text><text font-family="DengXian,DengXian_MSFontService,sans-serif" font-weight="700" font-size="52" transform="matrix(1 0 0 1 3060.45 551)">点弧长</text><path d="M2338.5 1169.5C2521.74 871.038 2682.07 802.163 2819.5 962.873 2956.93 1123.58 3117.26 1180.98 3300.5 1135.06" stroke="#333333" stroke-width="6.875" stroke-miterlimit="8" fill="none" fill-rule="evenodd"/><path d="M2320 1169C2320 1159.61 2327.83 1152 2337.5 1152 2347.17 1152 2355 1159.61 2355 1169 2355 1178.39 2347.17 1186 2337.5 1186 2327.83 1186 2320 1178.39 2320 1169Z" fill="#E8541A" fill-rule="evenodd"/><path d="M2389 1031C2389 1021.61 2396.61 1014 2406 1014 2415.39 1014 2423 1021.61 2423 1031 2423 1040.39 2415.39 1048 2406 1048 2396.61 1048 2389 1040.39 2389 1031Z" fill="#E8541A" fill-rule="evenodd"/><path d="M2458 928C2458 918.611 2465.61 911 2475 911 2484.39 911 2492 918.611 2492 928 2492 937.389 2484.39 945 2475 945 2465.61 945 2458 937.389 2458 928Z" fill="#E8541A" fill-rule="evenodd"/><path d="M2527 842C2527 832.611 2534.61 825 2544 825 2553.39 825 2561 832.611 2561 842 2561 851.389 2553.39 859 2544 859 2534.61 859 2527 851.389 2527 842Z" fill="#E8541A" fill-rule="evenodd"/><path d="M2613 790.5C2613 780.835 2620.61 773 2630 773 2639.39 773 2647 780.835 2647 790.5 2647 800.165 2639.39 808 2630 808 2620.61 808 2613 800.165 2613 790.5Z" fill="#E8541A" fill-rule="evenodd"/><path d="M2698 808C2698 798.611 2705.83 791 2715.5 791 2725.17 791 2733 798.611 2733 808 2733 817.389 2725.17 825 2715.5 825 2705.83 825 2698 817.389 2698 808Z" fill="#E8541A" fill-rule="evenodd"/><path d="M2784 876.5C2784 866.835 2791.83 859 2801.5 859 2811.17 859 2819 866.835 2819 876.5 2819 886.165 2811.17 894 2801.5 894 2791.83 894 2784 886.165 2784 876.5Z" fill="#E8541A" fill-rule="evenodd"/><path d="M2870 955.5C2870 945.835 2877.83 938 2887.5 938 2897.17 938 2905 945.835 2905 955.5 2905 965.165 2897.17 973 2887.5 973 2877.83 973 2870 965.165 2870 955.5Z" fill="#E8541A" fill-rule="evenodd"/><path d="M2956 1004C2956 994.611 2963.83 987 2973.5 987 2983.17 987 2991 994.611 2991 1004 2991 1013.39 2983.17 1021 2973.5 1021 2963.83 1021 2956 1013.39 2956 1004Z" fill="#E8541A" fill-rule="evenodd"/><path d="M3042 1031C3042 1021.61 3049.83 1014 3059.5 1014 3069.16 1014 3077 1021.61 3077 1031 3077 1040.39 3069.16 1048 3059.5 1048 3049.83 1048 3042 1040.39 3042 1031Z" fill="#E8541A" fill-rule="evenodd"/><path d="M3128 1065.5C3128 1055.84 3135.84 1048 3145.5 1048 3155.17 1048 3163 1055.84 3163 1065.5 3163 1075.17 3155.17 1083 3145.5 1083 3135.84 1083 3128 1075.17 3128 1065.5Z" fill="#E8541A" fill-rule="evenodd"/><path d="M3197 1100C3197 1090.61 3204.61 1083 3214 1083 3223.39 1083 3231 1090.61 3231 1100 3231 1109.39 3223.39 1117 3214 1117 3204.61 1117 3197 1109.39 3197 1100Z" fill="#E8541A" fill-rule="evenodd"/><path d="M3248 1117C3248 1107.61 3255.83 1100 3265.5 1100 3275.17 1100 3283 1107.61 3283 1117 3283 1126.39 3275.17 1134 3265.5 1134 3255.83 1134 3248 1126.39 3248 1117Z" fill="#E8541A" fill-rule="evenodd"/><path d="M3283 1134.5C3283 1124.83 3290.61 1117 3300 1117 3309.39 1117 3317 1124.83 3317 1134.5 3317 1144.16 3309.39 1152 3300 1152 3290.61 1152 3283 1144.16 3283 1134.5Z" fill="#E8541A" fill-rule="evenodd"/><text font-family="DengXian,DengXian_MSFontService,sans-serif" font-weight="400" font-size="41" transform="matrix(1 0 0 1 2516.25 1383)">边块：每条边</text><text font-family="Arial,Arial_MSFontService,sans-serif" font-weight="400" font-size="41" transform="matrix(1 0 0 1 2775.21 1383)">14 </text><text font-family="DengXian,DengXian_MSFontService,sans-serif" font-weight="400" font-size="41" transform="matrix(1 0 0 1 2832.5 1383)">个点（沿弧长）</text><text fill="#555555" font-family="DengXian,DengXian_MSFontService,sans-serif" font-weight="400" font-size="38" transform="matrix(1 0 0 1 2566.55 1456)">方向规范化（通过端点坐标）</text><text fill="#333333" font-family="DengXian,DengXian_MSFontService,sans-serif" font-weight="400" font-size="45" transform="matrix(1 0 0 1 1385.42 1646)">每个</text><text fill="#333333" font-family="Arial,Arial_MSFontService,sans-serif" font-weight="400" font-size="45" transform="matrix(1 0 0 1 1487.4 1646)">3D </text><text fill="#333333" font-family="DengXian,DengXian_MSFontService,sans-serif" font-weight="400" font-size="45" transform="matrix(1 0 0 1 1556.72 1646)">采样点被标量量化为</text><text fill="#333333" font-family="Arial,Arial_MSFontService,sans-serif" font-weight="400" font-size="45" transform="matrix(1 0 0 1 1971.52 1646)">4000 </text><text fill="#333333" font-family="DengXian,DengXian_MSFontService,sans-serif" font-weight="400" font-size="45" transform="matrix(1 0 0 1 2082.66 1646)">个等级，并打包到统一词汇表（大小</text><text fill="#333333" font-family="Arial,Arial_MSFontService,sans-serif" font-weight="400" font-size="45" transform="matrix(1 0 0 1 2810.27 1646)">4053</text><text fill="#333333" font-family="DengXian,DengXian_MSFontService,sans-serif" font-weight="400" font-size="45" transform="matrix(1 0 0 1 2908.81 1646)">）中</text></g></svg>