<?xml version="1.0" encoding="UTF-8"?>
<svg xmlns="http://www.w3.org/2000/svg" viewBox="0 0 900 550" font-family="sans-serif">
  <rect width="900" height="550" fill="#EFEFEF"/>
  <text x="450" y="35" text-anchor="middle" font-size="20" font-weight="bold" fill="#222">Fig 5-2 · Sequence Length Distribution Histogram (PLACEHOLDER)</text>
  <text x="450" y="58" text-anchor="middle" font-size="13" fill="#a00" font-weight="bold">⚠ 占位图，待 C-007 数据 + 真实直方图渲染替换</text>

  <!-- 大灰底块强调占位 -->
  <rect x="60" y="90" width="780" height="380" fill="#D8D8D8" stroke="#999" stroke-width="2" stroke-dasharray="6,4"/>

  <!-- 坐标轴框架（空直方图）-->
  <g stroke="#666" stroke-width="1.5" fill="none">
    <line x1="130" y1="120" x2="130" y2="430"/>
    <line x1="130" y1="430" x2="800" y2="430"/>

    <line x1="125" y1="160" x2="135" y2="160"/>
    <line x1="125" y1="220" x2="135" y2="220"/>
    <line x1="125" y1="280" x2="135" y2="280"/>
    <line x1="125" y1="340" x2="135" y2="340"/>
    <line x1="125" y1="400" x2="135" y2="400"/>

    <line x1="200" y1="425" x2="200" y2="435"/>
    <line x1="300" y1="425" x2="300" y2="435"/>
    <line x1="400" y1="425" x2="400" y2="435"/>
    <line x1="500" y1="425" x2="500" y2="435"/>
    <line x1="600" y1="425" x2="600" y2="435"/>
    <line x1="700" y1="425" x2="700" y2="435"/>
    <line x1="780" y1="425" x2="780" y2="435"/>
  </g>

  <!-- 灰色空 bin 框（提示是直方图）-->
  <g fill="#C0C0C0" stroke="#888" stroke-width="1" stroke-dasharray="3,2" opacity="0.6">
    <rect x="200" y="380" width="30" height="50"/>
    <rect x="240" y="320" width="30" height="110"/>
    <rect x="280" y="280" width="30" height="150"/>
    <rect x="320" y="260" width="30" height="170"/>
    <rect x="360" y="290" width="30" height="140"/>
    <rect x="400" y="330" width="30" height="100"/>
    <rect x="440" y="360" width="30" height="70"/>
    <rect x="480" y="380" width="30" height="50"/>
    <rect x="520" y="395" width="30" height="35"/>
    <rect x="560" y="405" width="30" height="25"/>
    <rect x="600" y="410" width="30" height="20"/>
    <rect x="640" y="415" width="30" height="15"/>
    <rect x="680" y="418" width="30" height="12"/>
    <rect x="720" y="422" width="30" height="8"/>
    <rect x="760" y="425" width="20" height="5"/>
  </g>

  <!-- 坐标轴标签 -->
  <g font-size="11" fill="#555">
    <text x="120" y="164" text-anchor="end">2k</text>
    <text x="120" y="224" text-anchor="end">1.5k</text>
    <text x="120" y="284" text-anchor="end">1k</text>
    <text x="120" y="344" text-anchor="end">500</text>
    <text x="120" y="404" text-anchor="end">0</text>

    <text x="200" y="448" text-anchor="middle">0</text>
    <text x="300" y="448" text-anchor="middle">500</text>
    <text x="400" y="448" text-anchor="middle">1 000</text>
    <text x="500" y="448" text-anchor="middle">1 500</text>
    <text x="600" y="448" text-anchor="middle">2 000</text>
    <text x="700" y="448" text-anchor="middle">3 000</text>
    <text x="780" y="448" text-anchor="middle">4 096</text>
  </g>

  <text x="465" y="468" text-anchor="middle" font-size="12" fill="#444">序列长度（三元组数）</text>
  <text x="80" y="275" text-anchor="middle" font-size="12" fill="#444" transform="rotate(-90 80 275)">样本数</text>

  <!-- 大字提示 -->
  <g font-size="22" font-weight="bold" fill="#a00" text-anchor="middle">
    <text x="465" y="180">PLACEHOLDER</text>
    <text x="465" y="215">占位待 C-007 数据替换</text>
  </g>

  <g font-size="13" fill="#444" text-anchor="middle">
    <text x="465" y="250">数据源：DeepCAD 预处理后 token 序列长度分布</text>
    <text x="465" y="270">需 C-007（fsq-vae 输出 token 长度统计）落地后渲染</text>
    <text x="465" y="295">关注分位点：P50 / P95 / P99 / max</text>
    <text x="465" y="312">截断阈值：max_seq_len = 4 096（local_verified 配置）</text>
  </g>

  <text x="450" y="505" text-anchor="middle" font-size="13" fill="#999">LaTeX label: fig:seq-length-dist · 章节建议: §3.5.4 / §3.6.2 / §5.1.3</text>
  <text x="450" y="524" text-anchor="middle" font-size="11" fill="#a00" font-weight="bold">[PLACEHOLDER · 待真实数据/渲染替换]</text>
</svg>
