<svg xmlns="http://www.w3.org/2000/svg" width="900" height="540" viewBox="0 0 900 540">
<defs>
<linearGradient id="bgGradient" x1="0" y1="0" x2="1" y2="1">
<stop offset="0%" stop-color="#F8FAFC"/>
<stop offset="100%" stop-color="#EEF4F8"/>
</linearGradient>
<style>
.axis { stroke: #94A0AA; stroke-width: 1; }
.grid { stroke: #E4EAF0; stroke-width: 1; }
.dash { stroke-dasharray: 6 5; }
</style>
</defs>
<rect width="900" height="540" fill="url(#bgGradient)"/>
<text x="86.0" y="34.0" font-family="Microsoft YaHei, SimHei, Noto Sans CJK SC, Arial, sans-serif" font-size="23" fill="#164B67" text-anchor="start" font-weight="700" >序列长度分布</text>
<text x="86.0" y="57.0" font-family="Microsoft YaHei, SimHei, Noto Sans CJK SC, Arial, sans-serif" font-size="12" fill="#5A6975" text-anchor="start" font-weight="400" >按 input_ids 真实长度统计；train: 64,351，val: 6,096</text>
<line class="grid" x1="86" y1="458.0" x2="864" y2="458.0" opacity="0.95"/>
<text x="74.0" y="463.0" font-family="Microsoft YaHei, SimHei, Noto Sans CJK SC, Arial, sans-serif" font-size="12" fill="#5A6975" text-anchor="end" font-weight="400" >0%</text>
<line class="grid" x1="86" y1="358.8" x2="864" y2="358.8" opacity="0.95"/>
<text x="74.0" y="363.8" font-family="Microsoft YaHei, SimHei, Noto Sans CJK SC, Arial, sans-serif" font-size="12" fill="#5A6975" text-anchor="end" font-weight="400" >10%</text>
<line class="grid" x1="86" y1="259.6" x2="864" y2="259.6" opacity="0.95"/>
<text x="74.0" y="264.6" font-family="Microsoft YaHei, SimHei, Noto Sans CJK SC, Arial, sans-serif" font-size="12" fill="#5A6975" text-anchor="end" font-weight="400" >20%</text>
<line class="grid" x1="86" y1="160.5" x2="864" y2="160.5" opacity="0.95"/>
<text x="74.0" y="165.5" font-family="Microsoft YaHei, SimHei, Noto Sans CJK SC, Arial, sans-serif" font-size="12" fill="#5A6975" text-anchor="end" font-weight="400" >30%</text>
<line class="grid" x1="86" y1="61.3" x2="864" y2="61.3" opacity="0.95"/>
<text x="74.0" y="66.3" font-family="Microsoft YaHei, SimHei, Noto Sans CJK SC, Arial, sans-serif" font-size="12" fill="#5A6975" text-anchor="end" font-weight="400" >40%</text>
<text x="49.8" y="483.0" font-family="Microsoft YaHei, SimHei, Noto Sans CJK SC, Arial, sans-serif" font-size="12" fill="#5A6975" text-anchor="middle" font-weight="400" >0</text>
<text x="230.7" y="483.0" font-family="Microsoft YaHei, SimHei, Noto Sans CJK SC, Arial, sans-serif" font-size="12" fill="#5A6975" text-anchor="middle" font-weight="400" >1000</text>
<text x="411.7" y="483.0" font-family="Microsoft YaHei, SimHei, Noto Sans CJK SC, Arial, sans-serif" font-size="12" fill="#5A6975" text-anchor="middle" font-weight="400" >2000</text>
<text x="592.6" y="483.0" font-family="Microsoft YaHei, SimHei, Noto Sans CJK SC, Arial, sans-serif" font-size="12" fill="#5A6975" text-anchor="middle" font-weight="400" >3000</text>
<text x="773.5" y="483.0" font-family="Microsoft YaHei, SimHei, Noto Sans CJK SC, Arial, sans-serif" font-size="12" fill="#5A6975" text-anchor="middle" font-weight="400" >4000</text>
<text x="954.5" y="483.0" font-family="Microsoft YaHei, SimHei, Noto Sans CJK SC, Arial, sans-serif" font-size="12" fill="#5A6975" text-anchor="middle" font-weight="400" >5000</text>
<line class="axis" x1="86" y1="458" x2="864" y2="458"/>
<line class="axis" x1="86" y1="76" x2="86" y2="458"/>
<text x="475.0" y="512.0" font-family="Microsoft YaHei, SimHei, Noto Sans CJK SC, Arial, sans-serif" font-size="13" fill="#5A6975" text-anchor="middle" font-weight="400" >序列长度 / token</text>
<text x="22.0" y="267.0" font-family="Microsoft YaHei, SimHei, Noto Sans CJK SC, Arial, sans-serif" font-size="13" fill="#5A6975" text-anchor="middle" font-weight="400" transform="rotate(-90 22 267.0)">样本占比</text>
<rect x="87.0" y="425.2" width="16.1" height="32.8" fill="#1F5E82" opacity="0.88" rx="2.5"/>
<rect x="105.1" y="443.5" width="16.1" height="14.5" fill="#1F5E82" opacity="0.88" rx="2.5"/>
<rect x="123.2" y="125.8" width="16.1" height="332.2" fill="#1F5E82" opacity="0.88" rx="2.5"/>
<rect x="141.3" y="417.1" width="16.1" height="40.9" fill="#1F5E82" opacity="0.88" rx="2.5"/>
<rect x="159.4" y="369.3" width="16.1" height="88.7" fill="#1F5E82" opacity="0.88" rx="2.5"/>
<rect x="177.5" y="393.9" width="16.1" height="64.1" fill="#1F5E82" opacity="0.88" rx="2.5"/>
<rect x="195.6" y="331.9" width="16.1" height="126.1" fill="#1F5E82" opacity="0.88" rx="2.5"/>
<rect x="213.7" y="431.1" width="16.1" height="26.9" fill="#1F5E82" opacity="0.88" rx="2.5"/>
<rect x="231.7" y="415.8" width="16.1" height="42.2" fill="#1F5E82" opacity="0.88" rx="2.5"/>
<rect x="249.8" y="394.6" width="16.1" height="63.4" fill="#1F5E82" opacity="0.88" rx="2.5"/>
<rect x="267.9" y="437.1" width="16.1" height="20.9" fill="#1F5E82" opacity="0.88" rx="2.5"/>
<rect x="286.0" y="430.3" width="16.1" height="27.7" fill="#1F5E82" opacity="0.88" rx="2.5"/>
<rect x="304.1" y="441.7" width="16.1" height="16.3" fill="#1F5E82" opacity="0.88" rx="2.5"/>
<rect x="322.2" y="439.8" width="16.1" height="18.2" fill="#1F5E82" opacity="0.88" rx="2.5"/>
<rect x="340.3" y="448.2" width="16.1" height="9.8" fill="#1F5E82" opacity="0.88" rx="2.5"/>
<rect x="358.4" y="445.3" width="16.1" height="12.7" fill="#1F5E82" opacity="0.88" rx="2.5"/>
<rect x="376.5" y="452.6" width="16.1" height="5.4" fill="#1F5E82" opacity="0.88" rx="2.5"/>
<rect x="394.6" y="448.7" width="16.1" height="9.3" fill="#1F5E82" opacity="0.88" rx="2.5"/>
<rect x="412.7" y="453.8" width="16.1" height="4.2" fill="#1F5E82" opacity="0.88" rx="2.5"/>
<rect x="430.8" y="449.7" width="16.1" height="8.3" fill="#1F5E82" opacity="0.88" rx="2.5"/>
<rect x="448.9" y="453.1" width="16.1" height="4.9" fill="#1F5E82" opacity="0.88" rx="2.5"/>
<rect x="467.0" y="455.5" width="16.1" height="2.5" fill="#1F5E82" opacity="0.88" rx="2.5"/>
<rect x="485.0" y="453.7" width="16.1" height="4.3" fill="#1F5E82" opacity="0.88" rx="2.5"/>
<rect x="503.1" y="456.0" width="16.1" height="2.0" fill="#1F5E82" opacity="0.88" rx="2.5"/>
<rect x="521.2" y="455.7" width="16.1" height="2.3" fill="#1F5E82" opacity="0.88" rx="2.5"/>
<rect x="539.3" y="456.2" width="16.1" height="1.8" fill="#1F5E82" opacity="0.88" rx="2.5"/>
<rect x="557.4" y="456.7" width="16.1" height="1.3" fill="#1F5E82" opacity="0.88" rx="2.5"/>
<rect x="575.5" y="456.6" width="16.1" height="1.4" fill="#1F5E82" opacity="0.88" rx="2.5"/>
<rect x="593.6" y="456.7" width="16.1" height="1.3" fill="#1F5E82" opacity="0.88" rx="2.5"/>
<rect x="611.7" y="457.3" width="16.1" height="0.7" fill="#1F5E82" opacity="0.88" rx="2.5"/>
<rect x="629.8" y="457.3" width="16.1" height="0.7" fill="#1F5E82" opacity="0.88" rx="2.5"/>
<rect x="647.9" y="457.2" width="16.1" height="0.8" fill="#1F5E82" opacity="0.88" rx="2.5"/>
<rect x="666.0" y="457.4" width="16.1" height="0.6" fill="#1F5E82" opacity="0.88" rx="2.5"/>
<rect x="684.1" y="457.5" width="16.1" height="0.5" fill="#1F5E82" opacity="0.88" rx="2.5"/>
<rect x="702.2" y="457.6" width="16.1" height="0.4" fill="#1F5E82" opacity="0.88" rx="2.5"/>
<rect x="720.3" y="457.3" width="16.1" height="0.7" fill="#1F5E82" opacity="0.88" rx="2.5"/>
<rect x="738.3" y="457.8" width="16.1" height="0.2" fill="#1F5E82" opacity="0.88" rx="2.5"/>
<rect x="756.4" y="457.8" width="16.1" height="0.2" fill="#1F5E82" opacity="0.88" rx="2.5"/>
<rect x="774.5" y="457.8" width="16.1" height="0.2" fill="#1F5E82" opacity="0.88" rx="2.5"/>
<rect x="792.6" y="457.8" width="16.1" height="0.2" fill="#1F5E82" opacity="0.88" rx="2.5"/>
<rect x="810.7" y="457.9" width="16.1" height="0.1" fill="#1F5E82" opacity="0.88" rx="2.5"/>
<rect x="828.8" y="457.9" width="16.1" height="0.1" fill="#1F5E82" opacity="0.88" rx="2.5"/>
<rect x="846.9" y="458.0" width="16.1" height="0.0" fill="#1F5E82" opacity="0.88" rx="2.5"/>
</svg>
